<?xml version="1.0" standalone="no"?><svg xmlns="http://www.w3.org/2000/svg" viewBox="0 0 1440 320"><path fill="#ffffff" fill-opacity="1" d="M0,160L24,144C48,128,96,96,144,85.3C192,75,240,85,288,117.3C336,149,384,203,432,197.3C480,192,528,128,576,117.3C624,107,672,149,720,160C768,171,816,149,864,133.3C912,117,960,107,1008,101.3C1056,96,1104,96,1152,117.3C1200,139,1248,181,1296,197.3C1344,213,1392,203,1416,197.3L1440,192L1440,320L1416,320C1392,320,1344,320,1296,320C1248,320,1200,320,1152,320C1104,320,1056,320,1008,320C960,320,912,320,864,320C816,320,768,320,720,320C672,320,624,320,576,320C528,320,480,320,432,320C384,320,336,320,288,320C240,320,192,320,144,320C96,320,48,320,24,320L0,320Z"></path></svg>